HIERARCHY
ROOT Hips
{
  OFFSET 3.13124 94.3669 -3.18751
  CHANNELS  6 Xposition Yposition Zposition Zrotation Xrotation Yrotation
  JOINT LeftUpLeg
  {
    OFFSET 8.64259 1.95398 -2.38835
    CHANNELS 3 Zrotation Xrotation Yrotation
    JOINT LeftLeg
    {
      OFFSET 43.7702 0 0
      CHANNELS 3 Zrotation Xrotation Yrotation
      JOINT LeftFoot
      {
        OFFSET 40.6238 0 0
        CHANNELS 3 Zrotation Xrotation Yrotation
        JOINT LeftToeBase
        {
          OFFSET 12.7242 0 0
          CHANNELS 3 Zrotation Xrotation Yrotation
          End Site
          {
            OFFSET 0 0 0
          }
        }
      }
    }
  }
  JOINT RightUpLeg
  {
    OFFSET -8.2249 1.95398 -2.59336
    CHANNELS 3 Zrotation Xrotation Yrotation
    JOINT RightLeg
    {
      OFFSET 43.5653 0 0
      CHANNELS 3 Zrotation Xrotation Yrotation
      JOINT RightFoot
      {
        OFFSET 40.6238 0 0
        CHANNELS 3 Zrotation Xrotation Yrotation
        JOINT RightToeBase
        {
          OFFSET 12.7242 0 0
          CHANNELS 3 Zrotation Xrotation Yrotation
          End Site
          {
            OFFSET 0 0 0
          }
        }
      }
    }
  }
  JOINT Spine
  {
    OFFSET 0.165834 0.87714 6.61349
    CHANNELS 3 Zrotation Xrotation Yrotation
    JOINT Spine1
    {
      OFFSET 7.38962 1.71661e-005 0
      CHANNELS 3 Zrotation Xrotation Yrotation
      JOINT Spine2
      {
        OFFSET 11.9445 1.14441e-005 0
        CHANNELS 3 Zrotation Xrotation Yrotation
        JOINT Spine3
        {
          OFFSET 14.7254 4.19617e-005 0
          CHANNELS 3 Zrotation Xrotation Yrotation
          JOINT Spine4
          {
            OFFSET 10.9679 0 0
            CHANNELS 3 Zrotation Xrotation Yrotation
            JOINT RightShoulder
            {
              OFFSET 2.46616 -1.6653 3.69651
              CHANNELS 3 Zrotation Xrotation Yrotation
              JOINT RightArm
              {
                OFFSET 13.0012 0 0
                CHANNELS 3 Zrotation Xrotation Yrotation
                JOINT RightForeArm
                {
                  OFFSET 28.7848 1.52588e-005 0
                  CHANNELS 3 Zrotation Xrotation Yrotation
                  JOINT RightHand
                  {
                    OFFSET 26.5688 1.52588e-005 0
                    CHANNELS 3 Zrotation Xrotation Yrotation
                    End Site
                    {
                      OFFSET 0 0 0
                    }
                  }
                }
              }
            }
            JOINT LeftShoulder
            {
              OFFSET 2.38034 -1.29275 -3.75231
              CHANNELS 3 Zrotation Xrotation Yrotation
              JOINT LeftArm
              {
                OFFSET 16.3182 6.10352e-005 0
                CHANNELS 3 Zrotation Xrotation Yrotation
                JOINT LeftForeArm
                {
                  OFFSET 27.0901 0 0
                  CHANNELS 3 Zrotation Xrotation Yrotation
                  JOINT LeftHand
                  {
                    OFFSET 24.5451 1.52588e-005 0
                    CHANNELS 3 Zrotation Xrotation Yrotation
                    End Site
                    {
                      OFFSET 0 0 0
                    }
                  }
                }
              }
            }
            JOINT Neck
            {
              OFFSET 5.0226 -0.0266342 0
              CHANNELS 3 Zrotation Xrotation Yrotation
              JOINT Head
              {
                OFFSET 6.69363 2.86102e-005 0
                CHANNELS 3 Zrotation Xrotation Yrotation
                End Site
                {
                  OFFSET 0 0 0
                }
              }
            }
          }
        }
      }
    }
  }
}
MOTION
Frames:	5
Frame Time:	0.0333333
6.23144 97.8505 -29.035 141.295 -89.9998 141.364 -171.97 2.69571 91.5806 -8.84423 7.82836 1.58958 63.3406 1.29373 0.660055 28.7808 5.98852e-006 2.44713e-006 178.613 1.91918 87.5978 -7.53265 -1.30951 -0.0781308 62.6988 -1.27579 -0.646797 28.7808 1.4036e-005 2.28219e-005 0.00551138 6.33808 -90.0695 14.195 5.71069e-006 8.88298e-006 2.52408 1.44466e-006 -9.54947e-006 -20.0111 -0.00587669 3.75879e-006 0.00156313 -0.00587113 7.5709e-018 100.859 -19.0384 -85.3735 -8.47717 37.8336 -9.72623 0.326637 0.205093 -2.29323 -5.37983 -0.320024 -0.0162404 -79.1369 -21.8071 93.9917 12.9512 -41.7385 -5.54729 5.89854 41.8448 -5.87487 -2.06213 -0.0808372 -0.89502 1.75077 -0.00295997 -0.000936019 -7.40822 -0.00204305 -0.000669267 
6.22066 97.8535 -29.0299 168.085 -89.9984 168.168 -171.961 2.68033 91.6004 -8.82079 7.86972 1.60959 63.3443 1.25582 0.638826 28.7808 5.98852e-006 2.44713e-006 178.614 1.7541 87.6164 -7.21003 -1.28063 -0.0781299 62.5745 -1.26032 -0.635783 28.7808 1.4036e-005 2.28219e-005 0.00597072 6.33801 -90.0753 14.195 5.71069e-006 8.88298e-006 2.52408 1.44466e-006 -9.54947e-006 -20.0111 -0.00587669 3.75879e-006 0.00156313 -0.00587113 1.12593e-017 100.833 -19.0702 -85.42 -8.42051 37.9168 -9.72068 0.191539 0.187201 -2.45692 -5.37983 -0.320024 -0.0162404 -79.1725 -21.8416 93.9254 12.9161 -42.0412 -5.57373 6.2527 42.5411 -6.16379 -1.39636 -0.0530494 0.0236321 1.70949 -0.0494663 -0.00941568 -7.37125 -0.0341112 -0.0164499 
6.21263 97.8672 -29.0166 10.7712 -89.9865 10.8711 -171.963 2.62821 91.6256 -8.68422 7.8443 1.59393 63.2724 1.2061 0.611496 28.7808 5.98852e-006 2.44713e-006 178.564 1.0002 87.6345 -5.63302 -1.32581 -0.0781313 61.8178 -1.20945 -0.592262 28.7808 1.4036e-005 2.28219e-005 0.00845755 6.33757 -90.1063 14.195 5.71069e-006 8.88298e-006 2.52408 1.44466e-006 -9.54947e-006 -20.0111 -0.00587669 3.75879e-006 0.00156313 -0.00587113 7.18265e-018 100.834 -19.1105 -85.4208 -8.39969 37.9799 -9.76697 0.0823328 0.197366 -2.40199 -5.37983 -0.320024 -0.0162404 -79.1967 -21.8194 93.8563 12.8574 -42.1716 -5.58524 6.05323 42.6357 -6.00501 -0.110957 0.0050936 0.482387 1.75332 -0.0790953 0.0742277 -7.42147 -0.0544977 -0.0997343 
6.205 97.8536 -29.0056 -90.5124 -89.9784 -90.4452 -171.963 2.66868 91.5949 -8.83372 7.80933 1.59575 63.3576 1.25633 0.638977 28.7808 5.98852e-006 2.44713e-006 178.62 1.86895 87.6202 -7.46328 -1.28399 -0.07813 62.6961 -1.28158 -0.650176 28.7808 1.4036e-005 2.28219e-005 0.00556857 6.33806 -90.0705 14.195 5.71069e-006 8.88298e-006 2.52408 1.44466e-006 -9.54947e-006 -20.0111 -0.00587669 3.75879e-006 0.00156313 -0.00587113 1.0871e-017 100.804 -19.1625 -85.4497 -8.42008 38.0162 -9.77902 0.0591997 0.195163 -2.43264 -5.37983 -0.320024 -0.0162404 -79.2103 -21.7967 93.8673 12.8466 -42.2696 -5.59344 6.33735 42.6135 -6.25799 -0.582559 -0.00986291 0.788134 1.74528 -0.0774223 0.0827155 -7.40935 -0.0668817 -0.0561871 
6.19534 97.8524 -28.9952 -71.4102 -89.9804 -71.3513 -171.965 2.68056 91.5917 -8.85245 7.79588 1.59329 63.348 1.2299 0.623283 28.7808 5.98852e-006 2.44713e-006 178.611 1.77604 87.6028 -7.2769 -1.33442 -0.0781316 62.6244 -1.22437 -0.615831 28.7808 1.4036e-005 2.28219e-005 0.00540725 6.33809 -90.0684 14.195 5.71069e-006 8.88298e-006 2.52408 1.44466e-006 -9.54947e-006 -20.0111 -0.00587669 3.75879e-006 0.00156313 -0.00587113 1.16475e-017 100.824 -19.1674 -85.4108 -8.37652 38.0417 -9.86359 0.0476098 0.19458 -2.41505 -5.37983 -0.320024 -0.0162404 -79.2259 -21.7733 93.821 12.8594 -42.2628 -5.58267 6.15139 42.7587 -6.10022 0.109339 0.020408 0.749083 1.75495 -0.0525598 0.0899915 -7.39291 -0.0458645 -0.0457097 
